<?xml version="1.0" encoding="UTF-8"?>
<svg version="1.1" viewBox="0 0 2048 1408" width="1280" height="1280" xmlns="http://www.w3.org/2000/svg">
<path transform="translate(1153,736)" d="m0 0h199l36 1 9 2 9 6 6 10 1 4v108l-4 8-5 5-6 4-4 1h-21l-19-3-9-4-10-16-11-18-11-13-10-8-10-6-14-5-9-2h-21l-15 4-16 8-9 7-8 8-8 14-7 17-7 10-9 5-12 3-7 1h-15l-12-3-7-5-6-12-2-5-2-17v-49l2-32 4-20 5-4 5-2 7-1z" fill="#F5B808"/>
<path transform="translate(694,736)" d="m0 0h197l39 1 9 2 9 6 6 9 1 4 1 26v50l-1 33-5 10-4 5-6 3-11 1-37-3-4-2-12-23-7-12-7-9-7-8-12-9-12-6-14-4-7-1h-14l-12 3-15 6-16 10-10 10-9 16-5 13-6 9-8 6-14 4-7 1h-14l-13-3-8-7-5-12-3-10-2-16v-21l2-32 4-33 3-10 4-4 9-2z" fill="#F5B808"/>
<path transform="translate(1023,387)" d="m0 0h103l25 1 18 2 6 4 4 6 5 17 3 28v32l-3 37-3 11-6 7-9 3-7 1h-28l-10-3-6-7-14-24-10-14-8-9-10-7-12-6-14-4-9-1h-14l-14 2-15 6-11 7-9 7-7 10-7 14-5 13-5 8-5 4-14 3h-18l-17-2-7-3-6-7-4-14-1-17v-35l1-33 3-23 3-7 7-3 6-1 22-1z" fill="#F5B808"/>
<path transform="translate(930,907)" d="m0 0h269l115 1 71 2 13 1 6 3 7 8 3 9v8l-2 5-3 2-12 1-69 2-57 1h-480l-98-2-23-1-12-2-7-6-3-8 1-7 5-8 8-5 19-1 90-2z" fill="#EE2E43"/>
<path transform="translate(836,554)" d="m0 0h28l51 2 29 4 8 5 4 7 3 9 1 11v45l-2 30-4 28-4 13-6 3-8 2-24 2-40 2h-23l-23-2-12-3-8-5-5-6-4-13-2-27v-22l2-35 5-26 4-10 4-6 9-6z" fill="#EE2A3E"/>
<path transform="translate(1274,1089)" d="m0 0h51l69 2 21 1 10 2 12 5 12 9 8 9 6 13 2 12 2 24v32l-3 11-4 5-8 3-4 1h-26l-14-3-3-2-3-20-1-10-2-46-3-18-1-2h-2l-2 4-2 22-3 55-2 10-4 6-8 3-4 1h-28l-10-3-5-5-3-4-3-19-1-14-1-50-1-5-4-1-3 9-1 7-2 46-3 27-2 8-11 3-7 1h-26l-10-3-4-5-2-15-2-26v-52l4-16 8-7 9-3z" fill="#472A6A"/>
<path transform="translate(1132,555)" d="m0 0h68l20 1 27 4 6 3 5 5 4 9 3 20v37l-3 39-4 24-4 11-3 2-12 3-33 3-15 1h-36l-30-3-12-5-5-4-4-8-3-17v-33l3-49 2-16 4-13 6-8 9-5z" fill="#ED293E"/>
<path transform="translate(79,1090)" d="m0 0h51l32 1 16 1 10 3 6 4 5 9 1 4v13l-2 12-4 6-10 6-9 3v2l12 3 8 5 5 6 4 11 1 4v9l-4 13-7 8-4 2-12 2-12 1h-83l-25-2-10-2-2-7-3-38v-40l2-24 3-11 4-2z" fill="#482B6A"/>
<path transform="translate(1987,1089)" d="m0 0h15l8 3 8 7 3 6 2 9 1 12v43l-2 27-2 14-5 5-11 3h-30l-18-3-3-3-3-17-1-12-1-26-1-4h-4l-1 11-1 24-2 17-2 8-9 3-14 2h-32l-7-3-4-5-2-9-2-27v-19l2-41 2-13 7-8 12-3h26l16 3 5 4 3 9 3 17h4l4-20 3-6 5-4 17-3z" fill="#472A6A"/>
<path transform="translate(829,1088)" d="m0 0 16 1 10 3 6 4 4 7 3 11 1 13 4-2 2-7 2-15 5-8 4-3 14-3h28l12 3 6 5 4 10v16l-5 16-6 8-8 3-22 3-3 1v4l28 2 9 3 3 3 3 9 1 6v20l-4 13-20 4h-26l-17-3-3-2-3-16-1-9-2-31-5-1-1 30-2 18-4 8-4 3-13 3-18 1-15-1-11-3-4-5-2-15-2-26v-41l2-19 3-8 5-6 9-4 8-2z" fill="#482B6B"/>
<path transform="translate(1582,1089)" d="m0 0h12l21 2 11 3 9 4 8 5 7 6 7 11 4 12 3 21 1 12v19l-2 17-3 9-5 5-13 3h-30l-12-3-5-5-6-18-1-4h-8l-3 17-4 9-12 3-7 1h-23l-17-3-3-3-3-18-1-11v-20l3-30 2-10 7-12 9-9 16-8 14-3z" fill="#482A6A"/>
<path transform="translate(469,1089)" d="m0 0h29l17 3 13 5 11 7 6 5 7 10 4 9 3 14 1 7v14l-4 19-7 13-4 5-11 8-13 6-17 4-11 1h-29l-13-2-12-3-16-8-9-9-8-16-3-15v-22l4-19 6-11 9-10 11-7 15-5z" fill="#472A6A"/>
<path transform="translate(667,1089)" d="m0 0h28l17 3 13 5 14 9 9 9 4 8v6l-4 3-16 3h-22l-18-3-6-4-4-8-1-3-5-1-3 12v22l3 8 5-1 7-10 4-2 6-1h29l13 2 8 3 4 5 2 5v21l-5 13-9 10-9 6-12 5-17 4-10 1h-33l-16-3-10-3-12-7-6-5-9-14-3-9-3-16v-17l4-19 6-12 9-10 14-8 13-4z" fill="#482A6A"/>
<path transform="translate(1154,1089)" d="m0 0h14l18 1 8 2 4 5 1 2v8l-7 6-8 2-9 1-26 1-4 1 27 6 14 7 8 8 4 10 1 5v29l-3 13-7 10-8 7-7 2-49 3h-26l-16-3-6-5-3-8-1-6v-12l3-12 4-6 8-4 10-2 35-2 1-4-4-1-27-2-13-4-8-7-5-6-3-8 1-10 3-11 3-5 8-5 11-3 27-2z" fill="#472A6A"/>
<path transform="translate(1737,1091)" d="m0 0h68l14 1 5 2 5 6v6l-6 5-15 4-7 1-28 2 17 3 15 5 10 6 5 4 6 9 4 14 1 12-2 13-3 10-6 10-7 6-10 4-36 4-16 1h-13l-20-2-9-3-4-5-3-15v-8l3-14 6-8 7-3 18-2 24-1v-3l-5-2-36-6-8-4-5-7-2-7v-13l3-9 4-7 9-6 6-2z" fill="#492C6B"/>
<path transform="translate(1064,92)" d="m0 0h41l14 3 8 5 4 6-1 6-7 9-5 5-3 4 1 6 9 15 5 8 2 7-5 6-13 3-18 2-49 1-4 114-1 35-2 18-3 13-3 4-5-1-4-6-3-9-4-27-2-35v-70l2-51 4-44 3-12 4-6 12-6z" fill="#EE2E43"/>
<path transform="translate(270,1089)" d="m0 0h17l18 3 5 3 4 5 2 5 3 28 1 27 5-1 21 1 10 4 4 5 3 10v26l-4 6-3 3-15 3-9 1h-54l-27-3-3-3-3-31-1-36 1-28 2-16 3-7 8-3z" fill="#482A6A"/>
<path transform="translate(754,584)" d="m0 0 6 1 5 4 4 8 1 6v34l-3 29-4 24-5 22-2 2h-65l-15-3-9-4-6-7-1-6 7-14 12-16 11-14 12-14 8-10 9-10 11-12 10-11 10-7z" fill="#492C6B"/>
<path transform="translate(1303,584)" d="m0 0 5 1 11 8 27 27 7 8 10 11 9 11 10 12 10 14 6 11 3 7v6l-4 6-6 4-14 3-12 1h-44l-14-3-4-8-6-28-4-26-3-24v-9l3-17 3-8 4-5z" fill="#482A6A"/>
<path transform="translate(1077,233)" d="m0 0 4 1 10 9 20 20 7 8 10 11 9 11 11 13 13 17 10 15 4 8v6l-5 5-8 4-14 3-19 2h-11l-27-2-9-3-5-4-4-10-4-18-4-33v-43l2-9 4-7z" fill="#492C6B"/>
<path transform="translate(982,234)" d="m0 0 7 1 5 6 2 9 1 9v25l-3 40-4 24-5 13-4 2-27 2h-34l-17-2-10-5-5-7 2-9 6-12 14-19 8-9 9-11 9-10 11-12 9-11 8-8 7-8 9-7z" fill="#4A2D6C"/>
<path transform="translate(300,1286)" d="m0 0h18l20 3 8 4 5 6 4 12 4 29v18l-5 13-5 5-12 4-22 3h-18l-8-3-5-6-3-13-1-9v-34l3-20 4-7 8-4z" fill="#EE2E43"/>
<path transform="translate(600,1287)" d="m0 0h10l13 3 12 7 7 8 4 16v28l-2 24-2 7-1 1-9-1-4-5-4-10-3-6-2-1h-24l-7 14-4 7-5 4-5-2-6-7-2-11v-24l2-18 5-15 6-9 10-7z" fill="#EE3145"/>
<path transform="translate(1720,1287)" d="m0 0h21l17 2 9 4 7 6 6 10 1 4v13l-3 8-9 13 1 6 5 13v8l-4 6-6 2-6-3-10-11-8-11-3-3h-7l-4 18-5 8-2 1-9-1-3-7-3-20-1-14 1-28 4-20 6-3z" fill="#EE3045"/>
<path transform="translate(439,1287)" d="m0 0h24l18 3 10 6 6 7 4 8 1 5v8l-3 9-9 15 1 8 4 11v7l-7 8h-5l-10-10-10-14-4-5h-8l-2 16-5 10-3 2h-9l-3-4-2-9-1-10v-42l2-19 2-7z" fill="#ED3146"/>
<path transform="translate(1325,1288)" d="m0 0h15l9 2 11 6 8 9 4 13v26l-2 27-1 8-2 2-9-1-4-8-2-9-3-3-11-2h-11l-8 2-3 2-4 13-4 6h-7l-3-2-2-18-1-16v-16l2-15 3-9 6-8 11-7z" fill="#EE2B3F"/>
<path transform="translate(1596,1286)" d="m0 0h22l15 3 6 5 1 2v6l-4 4-14 3-15 1-4 1v9l19 2 9 3 4 4-1 8-5 4-13 4-10 2-6 3v5l8 4 19 2 10 4 5 5-3 5-6 4-14 4-8 1h-12l-13-3-5-3-3-5-3-15-1-12v-21l2-21 3-10 6-5 5-2z" fill="#ED2E43"/>
<path transform="translate(1469,1286)" d="m0 0h8l15 4 8 5 4 5 1 8-3 6-1 1h-7l-16-4-9-1v8l4 3 17 6 10 6 7 8 3 7v9l-6 12-8 7-11 4h-22l-13-5-5-4-5-9 1-6 6-5h7l19 6 10 1 3-2-2-4-13-6-13-5-9-7-5-7-2-8v-7l3-10 9-10 8-4z" fill="#EE3044"/>
<path transform="translate(1184,1287)" d="m0 0h16l22 2 2 3v11l-3 3-31 5-2 2 1 6 27 5 4 3v12l-1 2-28 5-3 2 2 7 5 3 2 1 23 2 6 4 1 7-4 7-5 3-13 2h-12l-20-3-4-1-3-12-2-16v-33l3-23 2-6 7-2z" fill="#ED2E43"/>
<path transform="translate(830,1288)" d="m0 0h17l11 3 11 7 6 8 3 7 1 7v21l-2 29-1 9-3 2-8-1-2-5-3-26-2-20-4-10-5-6-5-2h-7l-8 4-3 5-1 28-2 19-3 11-6 5-7-1-3-4-3-16v-28l3-21 4-9 7-8 5-4z" fill="#ED2C41"/>
<path transform="translate(1049,1286)" d="m0 0h25l14 2 7 3 3 4-1 8-8 5-10 3-1 8-1 28-2 18-3 11-6 7-7-1-3-5-2-12-2-54-14-3-5-4-2-4v-6l4-5z" fill="#EC3044"/>
<path transform="translate(722,1287)" d="m0 0 6 2 5 8 1 3v55l-2 15-3 11-2 2h-6l-6-7-3-13-2-17v-18l2-21 2-13 5-5z" fill="#EE2F43"/>
<path transform="translate(1329,1309)" d="m0 0h9l6 3 6 5 3 9v7l-2 2h-31l-5-2v-10l4-7 7-6z" fill="#FEFEFE"/>
<path transform="translate(604,1309)" d="m0 0h8l7 4 6 7 1 5v8l-5 2h-27l-5-4 1-10 6-8z" fill="#FEFEFE"/>
<path transform="translate(479,1113)" d="m0 0 6 1 3 3v41l-5 5-7-1-2-3v-42z" fill="#FEFEFE"/>
<path transform="translate(1731,1309)" d="m0 0h17l7 2 4 5 1 7-5 6-9 2h-14l-3-1-1-2v-15z" fill="#FEFEFE"/>
<path transform="translate(452,1309)" d="m0 0h13l9 1 5 5 1 2v7l-3 5-2 1-10 1h-12l-4-2v-16z" fill="#FEFEFE"/>
<path transform="translate(1583,1114)" d="m0 0 7 1 2 3v38l-2 4-7 1-4-4-1-3v-25l1-11z" fill="#FEFEFE"/>
<path transform="translate(309,1341)" d="m0 0h22l6 3 2 4-1 7-4 4-3 1h-22l-4-4v-11z" fill="#FEFEFE"/>
<path transform="translate(120,1166)" d="m0 0 7 1 3 6v16l-3 8-4 2-4-1-4-5-1-7 1-15z" fill="#FEFEFE"/>
<path transform="translate(1313,1114)" d="m0 0 6 2 3 6v80h-1l-2-15-1-14-1-50-1-5-4-1-3 9-1 7-2 46h-1v-57l3-5z" fill="#F2F1F5"/>
<path transform="translate(120,1111)" d="m0 0 6 1 3 3 1 3v16l-3 7-6 2-5-3-2-6v-14l3-7z" fill="#FEFEFE"/>
<path transform="translate(1391,1115)" d="m0 0h7l4 5v63h-1l-2-46-3-18-1-2h-2l-2 4-2 22-3 55h-1v-64l1-14z" fill="#FEFEFE"/>
<path transform="translate(2020,1105)" d="m0 0 2 4 2 17v43l-2 27-1 9h-1z" fill="#FEFEFE"/>
<path transform="translate(318,1308)" d="m0 0h12l2 2v7l-2 3h-22l-3-3 1-7 1-1z" fill="#FEFEFE"/>
<path transform="translate(1143,1112)" d="m0 0h49l-4 2-13 2-26 1-4 1 23 5v1h-10l-17-2-2-1 1-7z" fill="#FEFEFE"/>
<path transform="translate(1774,1112)" d="m0 0h43l-4 2-12 2-28 2 17 3 7 2v1h-10l-16-2-3-2 1-5z" fill="#FEFEFE"/>
<path transform="translate(283,1298)" d="m0 0h1v73h-1l-3-19v-34z" fill="#E9E5ED"/>
<path transform="translate(837,1308)" d="m0 0h8l8 4 5 8 1 9-2-4-5-9-5-4-3-1h-7l-8 4-3 5-1 28-2 19-2 4 1-44 2-9 5-6z" fill="#ECE9EF"/>
<path transform="translate(1274,1089)" d="m0 0h51l36 1v1l-7 1h-94v-1z" fill="#FEFEFE"/>
<path transform="translate(1577,1299)" d="m0 0h1v65h-2l-2-18v-21l2-21z" fill="#FEFEFE"/>
<path transform="translate(315,1105)" d="m0 0h1l3 28 1 27 5-1 21 1 4 2h-32l-1-1-2-36z" fill="#FEFEFE"/>
<path transform="translate(677,1114)" d="m0 0 4 2h-5l-3 12v22l3 8 5-1 3-3-1 6-5 3-6-3-2-6v-35l3-4z" fill="#FEFEFE"/>
<path transform="translate(1869,1114)" d="m0 0 2 4-1 83h-1l-2-27v-19z" fill="#FEFEFE"/>
<path transform="translate(1749,1151)" d="m0 0 13 1 4 1 2 6-2 2-7 1h-41v-1l18-2 24-1v-3l-5-2-6-1z" fill="#F0EEF2"/>
<path transform="translate(713,1300)" d="m0 0h1v69h-1l-3-23v-18l2-21z" fill="#EEECF1"/>
<path transform="translate(1130,1152)" d="m0 0h8l1 2v6l-7 2h-40v-1l6-1 35-2 1-4z" fill="#FEFEFE"/>
<path transform="translate(1154,1089)" d="m0 0h14l18 1 6 1v1h-81v-1z" fill="#FEFEFE"/>
<path transform="translate(1077,1308)" d="m0 0 5 1-3 2-1 8-1 28-2 18h-1v-27l1-29z" fill="#EAE7EE"/>
<path transform="translate(1313,1114)" d="m0 0m-3 1 3 1-2 2-3 15-2 46h-1v-57l3-5z" fill="#FEFEFE"/>
<path transform="translate(1579,1183)" d="m0 0h8l6 2 1 1 1 22-2-4-5-14v-2h-8l-1 6h-2l1-9z" fill="#FEFEFE"/>
<path transform="translate(1941,1148)" d="m0 0h9l1 2v26l-2 1-1-20-1-4h-4l-2 16h-1v-18z" fill="#FEFEFE"/>
<path transform="translate(869,1153)" d="m0 0h5l1 4-6-1-1 30-2 18-2 3 2-49z" fill="#FEFEFE"/>
<path transform="translate(692,1131)" d="m0 0 53 1v1l-13 2h-22l-18-3z" fill="#FEFEFE"/>
<path transform="translate(837,1308)" d="m0 0h8l8 4 5 8 1 9-2-4-5-9-5-4-3-1h-7l-8 4-4 6-1-3 5-6z" fill="#FEFEFE"/>
<path transform="translate(1599,1344)" d="m0 0h17v1l-10 2-6 3v5l8 4 11 1v1h-14l-7-2-1-3v-8z" fill="#FEFEFE"/>
<path transform="translate(1476,1347)" d="m0 0 9 2 4 4-1 4-5 4h-10l-10-4-2-3 5 1 11 3h6l3-2-2-4-8-4z" fill="#FEFEFE"/>
<path transform="translate(1044,176)" d="m0 0h5l-2 2-2 58h-1z" fill="#FEFEFE"/>
<path transform="translate(1987,1089)" d="m0 0h15l8 3-2 1-40-1v-1z" fill="#FEFEFE"/>
<path transform="translate(1191,1343)" d="m0 0h11v1l-13 3-1 3 2 5 5 3 2 1 11 1v1h-12l-8-1-2-2v-12z" fill="#FEFEFE"/>
<path transform="translate(1178,1381)" d="m0 0h40l-4 2-9 1h-12l-15-2z" fill="#FEFEFE"/>
<path transform="translate(1602,1308)" d="m0 0 5 1-4 2v9l19 2v1h-21l-2-1v-13z" fill="#FEFEFE"/>
<path transform="translate(1188,1308)" d="m0 0h13v1l-11 2-2 2 1 6 9 2v2h-10l-3-2v-9l1-3z" fill="#FEFEFE"/>
<path transform="translate(747,588)" d="m0 0m-2 1 2 1-23 23-7 8-5 4 2-4 7-7 7-8 12-13z" fill="#D6CFDD"/>
<path transform="translate(1316,1356)" d="m0 0h24l12 1 1 1v5l-7-4-8-1h-11l-8 2-4 2z" fill="#FEFEFE"/>
<path transform="translate(1589,1381)" d="m0 0h34l-4 2-8 1h-12l-10-2z" fill="#FEFEFE"/>
<path transform="translate(1950,1106)" d="m0 0h1v19l-1 1h-10v-10l2 2 1 5h4z" fill="#FEFEFE"/>
<path transform="translate(864,1103)" d="m0 0 2 3 3 16v5l4-2 2-2-1 7-5-1-2-2-3-20z" fill="#FEFEFE"/>
<path transform="translate(829,1088)" d="m0 0 16 1 4 2h-33l4-2z" fill="#FEFEFE"/>
<path transform="translate(1467,1309)" d="m0 0 2 1v8l4 3 17 6-3 1-15-5-8-6 1-6z" fill="#FEFEFE"/>
<path transform="translate(355,1318)" d="m0 0h1l2 18-5-3-1-1v-8z" fill="#FEFEFE"/>
<path transform="translate(904,1152)" d="m0 0h5l-3 2v4l15 1-3 3h-10l-5-2-1-4z" fill="#FEFEFE"/>
<path transform="translate(1075,1338)" d="m0 0 2 1-1 19-1 7h-1v-26z" fill="#FEFEFE"/>
<path transform="translate(174,1151)" d="m0 0 3 1h-2v2l12 3 2 2-17-2-3-1v-3z" fill="#FEFEFE"/>
<path transform="translate(492,1341)" d="m0 0v3l-2 4 1 10-4-4-1-7z" fill="#FEFEFE"/>
<path transform="translate(1732,1352)" d="m0 0h7l5 5 4 6-1 2-7-9-2-2h-7l-1 3-1-2z" fill="#FEFEFE"/>
<path transform="translate(1768,1345)" d="m0 0 1 2 1 6 2 5-1 3-5-9v-5z" fill="#FEFEFE"/>
</svg>
